<?xml version="1.0" standalone="no"?>
<!DOCTYPE svg PUBLIC "-//W3C//DTD SVG 20010904//EN"
 "http://www.w3.org/TR/2001/REC-SVG-20010904/DTD/svg10.dtd">
<svg version="1.0" xmlns="http://www.w3.org/2000/svg"
 width="128.000000pt" height="120.000000pt" viewBox="0 0 128.000000 120.000000"
 preserveAspectRatio="xMidYMid meet">
<metadata>
Created by potrace 1.16, written by Peter Selinger 2001-2019
</metadata>
<g transform="translate(0.000000,120.000000) scale(0.100000,-0.100000)"
fill="#5F51A3" stroke="none">
<path d="M936 1091 c-7 -10 6 -26 30 -39 26 -14 37 -6 24 18 -10 19 -47 33
-54 21z"/>
<path d="M812 883 c-70 -119 -115 -187 -124 -184 -28 8 -51 6 -55 -6 -7 -19
52 -73 77 -73 23 0 24 18 6 61 -5 11 34 66 129 183 74 91 135 168 135 171 0 3
-5 5 -12 5 -6 0 -19 7 -28 15 -16 15 -26 2 -128 -172z"/>
<path d="M359 1036 c-98 -35 -133 -90 -127 -200 11 -200 221 -420 498 -521 64
-24 92 -28 186 -29 106 -1 112 0 159 29 105 65 122 176 50 322 -36 73 -141
198 -206 244 l-27 19 -42 -56 -43 -55 24 -16 c46 -31 166 -159 195 -208 16
-28 35 -50 43 -50 8 0 16 -6 19 -12 2 -7 -1 -13 -7 -13 -6 0 -11 -19 -11 -44
0 -50 -24 -87 -73 -112 -41 -22 -100 -14 -182 25 -60 27 -65 32 -52 46 19 19
31 19 24 1 -9 -22 79 -31 131 -13 35 12 42 13 42 1 0 -23 16 -16 28 11 25 54
10 111 -53 200 -49 69 -141 159 -154 150 -6 -3 19 -33 53 -68 95 -94 118 -175
65 -228 -18 -18 -30 -21 -93 -17 -39 3 -78 8 -88 12 -11 5 -16 3 -15 -10 1 -9
-4 -19 -12 -22 -10 -3 -12 2 -8 19 5 21 1 26 -39 43 -57 23 -148 94 -198 154
-75 90 -128 231 -112 297 14 57 122 84 201 51 19 -8 35 -16 35 -18 0 -2 -27
-4 -60 -3 -53 0 -63 -3 -87 -29 -24 -24 -25 -26 -6 -17 33 17 36 13 14 -18
-88 -124 125 -374 330 -389 66 -4 69 -4 80 21 16 35 -11 107 -52 142 -38 31
-74 36 -41 5 39 -37 55 -68 48 -96 -5 -17 -12 -24 -21 -20 -8 3 -17 1 -20 -4
-11 -18 -48 -10 -109 24 -142 80 -229 234 -165 292 32 29 187 27 248 -3 25
-12 45 -21 46 -20 1 1 11 18 23 38 12 20 22 42 22 48 0 17 -135 78 -212 96
-77 18 -200 19 -249 1z m567 -196 c18 0 18 -5 -2 -29 -15 -17 -18 -17 -34 -4
-16 14 -16 17 -1 32 9 9 18 13 19 9 2 -4 10 -8 18 -8z m-56 -48 c0 -13 -12
-22 -22 -16 -10 6 -1 24 13 24 5 0 9 -4 9 -8z"/>
<path d="M563 830 c-56 -23 -50 -91 15 -151 64 -60 79 -66 30 -12 -27 29 -48
61 -48 72 0 25 45 61 76 61 28 0 41 -17 17 -23 -10 -3 3 -5 29 -6 62 -1 69 15
16 38 -55 25 -107 33 -135 21z"/>
<path d="M730 836 c0 -2 7 -7 16 -10 8 -3 12 -2 9 4 -6 10 -25 14 -25 6z"/>
<path d="M134 789 c-16 -18 -19 -34 -16 -110 3 -88 29 -179 51 -179 5 0 13
-10 17 -22 6 -19 58 -80 109 -128 9 -8 34 -32 56 -52 22 -21 46 -38 53 -38 7
0 27 -13 44 -30 18 -16 40 -30 51 -30 10 0 29 -9 43 -19 13 -11 37 -23 53 -27
16 -4 40 -13 54 -20 14 -8 36 -14 49 -14 13 0 32 -5 42 -10 13 -7 37 -7 72 -1
129 24 153 32 182 60 l29 30 -36 6 c-20 4 -49 3 -65 -3 -21 -7 -35 -6 -53 4
-13 7 -42 14 -64 14 -22 0 -49 7 -59 15 -11 8 -32 15 -47 15 -15 0 -40 11 -56
24 -16 13 -47 29 -70 35 -24 7 -47 21 -57 35 -8 13 -31 29 -50 36 -22 7 -43
24 -56 45 -11 18 -31 36 -45 39 -14 4 -32 20 -41 39 -9 17 -29 42 -45 55 -16
13 -29 32 -29 42 0 11 -13 35 -30 53 -21 24 -30 45 -30 68 0 19 -8 46 -18 62
l-19 27 -19 -21z m46 -74 c0 -49 -20 -84 -37 -63 -16 21 -23 87 -11 114 11 23
12 23 30 8 12 -12 18 -31 18 -59z m34 -74 c20 -22 32 -86 18 -95 -19 -12 -39
5 -51 43 -11 37 -7 71 9 71 4 0 15 -8 24 -19z m-47 -47 c8 -21 12 -50 10 -64
-3 -22 -6 -19 -25 23 -24 53 -29 91 -10 85 6 -2 18 -22 25 -44z m141 -88 c7
-14 10 -35 7 -46 -14 -44 -82 29 -71 76 6 24 8 25 29 11 12 -8 28 -26 35 -41z
m-69 -15 c19 -36 15 -76 -5 -63 -16 10 -44 68 -44 91 0 31 28 15 49 -28z m125
-43 c14 -6 32 -21 41 -34 15 -23 11 -54 -7 -54 -33 0 -82 58 -72 84 7 19 7 19
38 4z m-54 -30 c21 -23 37 -65 27 -74 -16 -17 -77 51 -77 86 0 18 28 11 50
-12z m200 -83 c26 -27 19 -45 -16 -45 -40 0 -90 61 -68 83 10 10 60 -13 84
-38z m-92 -12 c42 -46 2 -73 -43 -29 -33 33 -34 70 -2 61 12 -4 32 -18 45 -32z
m205 -52 c25 -24 14 -41 -25 -41 -37 0 -79 35 -71 57 8 20 70 10 96 -16z m-97
-19 c19 -24 11 -37 -21 -35 -34 3 -71 36 -60 53 10 16 64 5 81 -18z m217 -30
c21 -23 5 -42 -34 -42 -32 0 -75 32 -65 48 12 19 81 14 99 -6z m-105 -26 c23
-23 5 -37 -36 -30 -43 7 -68 27 -57 44 10 16 73 6 93 -14z m225 0 c13 -10 14
-16 5 -23 -38 -30 -134 -19 -108 12 6 8 26 16 43 18 18 2 34 4 37 5 3 1 13 -5
23 -12z m126 -5 c18 -12 -20 -36 -71 -45 -63 -11 -56 24 9 44 37 11 46 11 62
1z m-239 -31 c13 -9 13 -11 0 -20 -14 -10 -86 -7 -97 3 -22 23 65 38 97 17z
m110 -30 c-8 -5 -37 -10 -65 -10 -36 0 -46 3 -35 10 8 5 38 10 65 10 36 0 46
-3 35 -10z"/>
</g>
</svg>
